<?xml version="1.0" encoding="UTF-8" standalone="no"?>
<!-- Created with Inkscape (http://www.inkscape.org/) -->
<svg
   xmlns:dc="http://purl.org/dc/elements/1.1/"
   xmlns:cc="http://web.resource.org/cc/"
   xmlns:rdf="http://www.w3.org/1999/02/22-rdf-syntax-ns#"
   xmlns:svg="http://www.w3.org/2000/svg"
   xmlns="http://www.w3.org/2000/svg"
   xmlns:xlink="http://www.w3.org/1999/xlink"
   xmlns:sodipodi="http://sodipodi.sourceforge.net/DTD/sodipodi-0.dtd"
   xmlns:inkscape="http://www.inkscape.org/namespaces/inkscape"
   width="320"
   height="128"
   id="svg2160"
   sodipodi:version="0.32"
   inkscape:version="0.45.1"
   version="1.0"
   sodipodi:docbase="/home/maurizio/git/kboard/data/themes/Squares/Default"
   sodipodi:docname="inactive_clock.svg"
   inkscape:output_extension="org.inkscape.output.svg.inkscape">
  <defs
     id="defs2162">
    <linearGradient
       id="linearGradient3154">
      <stop
         style="stop-color:#ffffff;stop-opacity:0.3764706;"
         offset="0"
         id="stop3156" />
      <stop
         id="stop3162"
         offset="0.5"
         style="stop-color:#c0c0c0;stop-opacity:0.3764706;" />
      <stop
         style="stop-color:#000000;stop-opacity:1;"
         offset="1"
         id="stop3158" />
    </linearGradient>
    <radialGradient
       inkscape:collect="always"
       xlink:href="#linearGradient3154"
       id="radialGradient3160"
       cx="0"
       cy="64"
       fx="0"
       fy="64"
       r="64"
       gradientUnits="userSpaceOnUse"
       gradientTransform="translate(106.09929,-0.4389615)" />
    <linearGradient
       id="linearGradient4364">
      <stop
         style="stop-color:#ffffff;stop-opacity:0.50196081;"
         offset="0"
         id="stop4366" />
      <stop
         id="stop4372"
         offset="0.5"
         style="stop-color:#ffffff;stop-opacity:0.3764706;" />
      <stop
         style="stop-color:#000000;stop-opacity:1;"
         offset="1"
         id="stop4368" />
    </linearGradient>
    <radialGradient
       inkscape:collect="always"
       xlink:href="#linearGradient4364"
       id="radialGradient4370"
       cx="11.350265"
       cy="93.995819"
       fx="11.350265"
       fy="93.995819"
       r="74.181808"
       gradientTransform="matrix(0.4214539,-9.610937e-3,8.8857471e-3,0.389653,117.4721,20.210614)"
       gradientUnits="userSpaceOnUse" />
    <radialGradient
       inkscape:collect="always"
       xlink:href="#linearGradient4364"
       id="radialGradient6867"
       cx="107.23736"
       cy="61.26096"
       fx="107.23736"
       fy="61.26096"
       r="30.969875"
       gradientTransform="matrix(1.9838555,3.7361732e-2,-3.6338931e-2,1.9295462,-104.56556,-61.194728)"
       gradientUnits="userSpaceOnUse" />
  </defs>
  <sodipodi:namedview
     id="base"
     pagecolor="#ffffff"
     bordercolor="#666666"
     borderopacity="1.0"
     inkscape:pageopacity="0.0"
     inkscape:pageshadow="2"
     inkscape:zoom="1.9445436"
     inkscape:cx="96"
     inkscape:cy="91.946478"
     inkscape:current-layer="layer1"
     showgrid="true"
     inkscape:document-units="px"
     inkscape:grid-bbox="true"
     width="320px"
     height="128px"
     inkscape:window-width="1098"
     inkscape:window-height="665"
     inkscape:window-x="161"
     inkscape:window-y="73" />
  <metadata
     id="metadata2165">
    <rdf:RDF>
      <cc:Work
         rdf:about="">
        <dc:format>image/svg+xml</dc:format>
        <dc:type
           rdf:resource="http://purl.org/dc/dcmitype/StillImage" />
      </cc:Work>
    </rdf:RDF>
  </metadata>
  <g
     id="layer1"
     inkscape:label="Layer 1"
     inkscape:groupmode="layer">
    <path
       style="opacity:1;fill:#ffffff;fill-opacity:0.50196078;fill-rule:nonzero;stroke:none;stroke-width:4;stroke-miterlimit:4;stroke-dasharray:none;stroke-opacity:1"
       d="M 150.19411,9.5229142 C 141.37586,9.9714405 134.15615,16.329404 132.30633,24.775254 C 135.76775,27.599381 137.96976,31.912792 137.96976,36.777094 L 137.96976,62.999867 C 137.96976,67.624892 135.97306,71.740779 132.80149,74.56414 C 133.95074,78.124207 136.07515,81.24032 138.86725,83.56552 L 254.08561,83.56552 C 258.27048,83.56552 262.03948,85.269548 264.79352,88.003702 L 288.7161,88.003702 C 299.43758,88.003702 308.05843,79.297309 308.05843,68.469456 L 308.05843,29.05716 C 308.05843,18.229308 299.43759,9.5229142 288.7161,9.5229142 L 151.21539,9.5229142 C 150.88034,9.5229142 150.52487,9.5060905 150.19411,9.5229142 z "
       id="rect7874" />
    <path
       id="path7885"
       d="M 149.91558,1.6467062 C 137.79339,1.6467062 127.72757,10.131856 125.12646,21.55601 C 127.81758,21.988924 130.2816,23.127315 132.30633,24.775254 C 134.15615,16.329404 141.37586,9.9714405 150.19411,9.5229142 C 150.52487,9.5060905 150.88034,9.5229142 151.21539,9.5229142 L 288.7161,9.5229142 C 299.43759,9.5229142 308.05843,18.229308 308.05843,29.05716 L 308.05843,68.469456 C 308.05843,79.297309 299.43758,88.003702 288.7161,88.003702 L 264.79352,88.003702 C 266.75176,89.962191 268.19029,92.457257 268.87861,95.254814 L 289.98496,95.254814 C 304.09216,95.254814 315.42397,83.779291 315.42399,69.532118 L 315.42399,27.369402 C 315.42399,13.122229 304.09215,1.6467062 289.98496,1.6467062 L 149.91558,1.6467062 z M 134.37983,26.83807 C 134.63066,27.138213 134.86382,27.456465 135.09162,27.775714 C 134.86294,27.454763 134.63183,27.139796 134.37983,26.83807 z M 136.97944,31.307506 C 137.08926,31.601387 137.19664,31.911625 137.28891,32.213894 C 137.1951,31.906079 137.09143,31.606608 136.97944,31.307506 z M 132.80149,74.595395 C 130.87615,76.306323 128.50694,77.536621 125.90015,78.095932 C 126.57183,80.03318 127.44556,81.876638 128.5307,83.56552 L 138.86725,83.56552 C 136.08252,81.246456 133.95284,78.143725 132.80149,74.595395 z "
       style="opacity:1;fill:#808080;fill-opacity:0.75294118;fill-rule:nonzero;stroke:none;stroke-width:4;stroke-miterlimit:4;stroke-dasharray:none;stroke-opacity:1" />
    <path
       style="opacity:1;fill:none;fill-opacity:0.25098039;fill-rule:nonzero;stroke:#606060;stroke-width:3.98091245;stroke-miterlimit:4;stroke-dasharray:none;stroke-opacity:1"
       d="M 268.87861,95.254814 L 289.98496,95.254814 C 304.09216,95.254814 315.42397,83.779291 315.42399,69.532118 L 315.42399,27.369402 C 315.42399,13.122229 304.09215,1.6467062 289.98496,1.6467062 L 149.91558,1.6467062 C 137.79339,1.6467062 127.72757,10.131856 125.12646,21.55601 M 125.90015,78.095932 C 126.57183,80.03318 127.44556,81.876638 128.5307,83.56552"
       id="rect6893"
       sodipodi:nodetypes="ccccccccc" />
    <rect
       style="opacity:1;fill:#ffffff;fill-opacity:0.50196078;fill-rule:nonzero;stroke:#606060;stroke-width:3.98091245;stroke-miterlimit:4;stroke-dasharray:none;stroke-opacity:1"
       id="rect7866"
       width="227.14116"
       height="42.520782"
       x="41.200432"
       y="83.574318"
       ry="15.430152" />
    <rect
       ry="15.430152"
       y="21.339375"
       x="1.4761968"
       height="57.091564"
       width="136.4884"
       id="rect7864"
       style="opacity:1;fill:#ffffff;fill-opacity:0.50196078;fill-rule:nonzero;stroke:#606060;stroke-width:3.98091245;stroke-miterlimit:4;stroke-dasharray:none;stroke-opacity:1" />
  </g>
</svg>
