<?xml version="1.0" encoding="UTF-8" standalone="no"?>
<!-- Created with Inkscape (http://www.inkscape.org/) -->
<svg
   xmlns:dc="http://purl.org/dc/elements/1.1/"
   xmlns:cc="http://web.resource.org/cc/"
   xmlns:rdf="http://www.w3.org/1999/02/22-rdf-syntax-ns#"
   xmlns:svg="http://www.w3.org/2000/svg"
   xmlns="http://www.w3.org/2000/svg"
   xmlns:xlink="http://www.w3.org/1999/xlink"
   xmlns:sodipodi="http://inkscape.sourceforge.net/DTD/sodipodi-0.dtd"
   xmlns:inkscape="http://www.inkscape.org/namespaces/inkscape"
   width="700pt"
   height="700pt"
   id="svg36220"
   sodipodi:version="0.32"
   inkscape:version="0.42+0.43pre2"
   version="1.0"
   inkscape:export-filename="/home/maurizio/out/wp.png"
   inkscape:export-xdpi="90"
   inkscape:export-ydpi="90"
   sodipodi:docbase="/home/monge/kboard/themes/Pieces/FantasySVG"
   sodipodi:docname="wd.svg">
  <defs
     id="defs36222">
    <linearGradient
       inkscape:collect="always"
       xlink:href="#linearGradient3070"
       id="linearGradient1935"
       gradientUnits="userSpaceOnUse"
       gradientTransform="matrix(1.646151,0.101471,-0.101471,1.646151,-430.7695,-176.0145)"
       x1="456.672"
       y1="496.70807"
       x2="790.85327"
       y2="285.25974" />
    <linearGradient
       inkscape:collect="always"
       xlink:href="#linearGradient3070"
       id="linearGradient3140"
       gradientUnits="userSpaceOnUse"
       gradientTransform="matrix(1.174281,-0.166511,0.157374,1.208875,93.87221,-356.9796)"
       x1="241.75385"
       y1="401.27609"
       x2="522.97559"
       y2="519.06158" />
    <linearGradient
       id="linearGradient3070">
      <stop
         style="stop-color:#ffffff;stop-opacity:1;"
         offset="0"
         id="stop3072" />
      <stop
         style="stop-color:#d0b090;stop-opacity:1;"
         offset="1"
         id="stop3074" />
    </linearGradient>
    <linearGradient
       inkscape:collect="always"
       xlink:href="#linearGradient3070"
       id="linearGradient3076"
       x1="586.52576"
       y1="328.04306"
       x2="1126.0223"
       y2="534.203"
       gradientUnits="userSpaceOnUse" />
    <linearGradient
       inkscape:collect="always"
       xlink:href="#linearGradient3070"
       id="linearGradient3084"
       x1="275.24356"
       y1="458.6561"
       x2="862.65161"
       y2="560.7475"
       gradientUnits="userSpaceOnUse"
       gradientTransform="translate(-46.00000,0.000000)" />
    <linearGradient
       inkscape:collect="always"
       xlink:href="#linearGradient3070"
       id="linearGradient3092"
       x1="300.27295"
       y1="623.78223"
       x2="774.0462"
       y2="764.89874"
       gradientUnits="userSpaceOnUse"
       gradientTransform="translate(-46.00000,0.000000)" />
    <linearGradient
       inkscape:collect="always"
       xlink:href="#linearGradient3070"
       id="linearGradient3320"
       x1="11.092378"
       y1="327.1796"
       x2="662.08868"
       y2="327.1796"
       gradientUnits="userSpaceOnUse" />
  </defs>
  <sodipodi:namedview
     id="base"
     pagecolor="#ffffff"
     bordercolor="#666666"
     borderopacity="1.0"
     inkscape:pageopacity="0.0"
     inkscape:pageshadow="2"
     inkscape:zoom="0.10606602"
     inkscape:cx="585.89894"
     inkscape:cy="408.08334"
     inkscape:current-layer="layer1"
     inkscape:document-units="px"
     inkscape:window-width="1134"
     inkscape:window-height="756"
     inkscape:window-x="400"
     inkscape:window-y="14" />
  <metadata
     id="metadata36225">
    <rdf:RDF>
      <cc:Work
         rdf:about="">
        <dc:format>image/svg+xml</dc:format>
        <dc:type
           rdf:resource="http://purl.org/dc/dcmitype/StillImage" />
        <dc:rights>
          <cc:Agent>
            <dc:title>Maurizio Monge</dc:title>
          </cc:Agent>
        </dc:rights>
        <dc:creator>
          <cc:Agent>
            <dc:title>Maurizio Monge</dc:title>
          </cc:Agent>
        </dc:creator>
        <cc:license
           rdf:resource="http://creativecommons.org/licenses/GPL/2.0/" />
      </cc:Work>
      <cc:License
         rdf:about="http://creativecommons.org/licenses/GPL/2.0/">
        <cc:permits
           rdf:resource="http://web.resource.org/cc/Reproduction" />
        <cc:permits
           rdf:resource="http://web.resource.org/cc/Distribution" />
        <cc:requires
           rdf:resource="http://web.resource.org/cc/Notice" />
        <cc:permits
           rdf:resource="http://web.resource.org/cc/DerivativeWorks" />
        <cc:requires
           rdf:resource="http://web.resource.org/cc/ShareAlike" />
        <cc:requires
           rdf:resource="http://web.resource.org/cc/SourceCode" />
      </cc:License>
    </rdf:RDF>
  </metadata>
  <g
     id="layer1"
     inkscape:label="Layer 1"
     inkscape:groupmode="layer">
    <g
       transform="matrix(1.277072,0.000000,0.000000,-1.277072,8.087859,863.9274)"
       id="g2431"
       style="fill:#000000;stroke:none">
      <path
         d="M 292.4083,635.18706 C 257.1679,619.54115 205.36166,647.07937 174.07814,612.06152 C 181.24491,583.27742 200.25792,556.74199 212.49996,528.24832 C 214.96753,522.50496 215.0365,474.63957 208.8374,465.02313 C 207.92856,446.33178 217.18195,507.45445 209.77996,517.10078 C 202.42366,526.68755 195.46189,533.28634 186.90656,549.79825 C 160.90943,543.92058 157.50419,558.89165 151.71912,566.63625 C 132.27129,543.85588 117.73496,551.60443 102.23765,554.00869 C 95.957182,554.98304 99.833169,528.63238 96.617137,516.60461 C 83.873503,483.22512 43.187759,471.70065 51.431423,431.21104 C 62.586999,421.76422 74.323684,436.71899 78.088785,424.31575 C 81.562442,412.87259 98.707767,442.61347 115.08542,449.89912 C 130.79004,456.88537 129.1847,463.81207 145.36602,449.75749 C 149.56281,446.11229 125.56957,437.16659 120.55374,428.50998 C 94.098638,382.85226 106.18431,334.90336 81.634638,292.79042 C 77.995047,251.95894 11.731373,286.82825 29.590136,244.71437 C 57.155273,263.56457 31.195894,204.59323 74.434366,250.45466 C 98.459995,284.70213 154.90504,212.56494 97.26049,220.82343 C 54.357259,187.29854 114.93335,209.91396 104.39768,185.54487 C 125.01371,165.34358 152.07073,261.59686 184.06887,211.87096 C 201.31413,197.42039 267.65997,152.46399 208.99364,162.16752 C 183.53838,160.20702 178.84945,130.39604 206.40796,142.11966 C 222.2348,122.30918 263.046,143.12139 283.34072,117.76825 C 277.85501,174.86158 344.06957,112.04846 310.5966,88.174633 C 267.06369,36.630087 191.16821,39.14773 131.00693,52.570859 C 97.040959,61.284267 43.542507,80.747852 54.209415,124.85672 C 62.797988,157.5477 18.443867,207.39049 11.384134,149.13729 C 7.1550977,103.98755 49.794704,73.608667 81.316966,48.894626 C 115.65635,17.191156 162.87559,8.647665 208.08762,11.916624 C 267.20655,12.654968 341.53301,31.695272 361.59,94.928586 C 362.37548,137.53822 378.48451,174.03517 387.93668,213.91647 C 386.47531,237.22141 388.14429,310.65782 421.00147,265.27582 C 444.8705,231.23473 457.1235,189.47314 453.21617,148.08797 C 479.96178,145.69744 456.18329,219.57389 479.42715,238.48041 C 514.50052,219.67461 530.84222,172.34906 532.69919,134.20323 C 525.72241,110.85587 543.79534,98.556741 543.93736,129.771 C 551.73927,170.965 541.28707,214.49422 553.90927,254.63425 C 591.68658,273.33679 641.42724,217.16604 643.77705,180.67458 C 642.74897,156.46529 672.51717,211.51836 658.175,226.88364 C 636.28924,313.49773 587.88419,390.37162 542.46455,466.33412 C 493.10713,544.22066 423.44424,619.98767 330.2407,641.34881 C 318.09489,642.91518 301.22089,646.33358 292.4083,635.18706 z M 368.34928,221.4787 C 385.82403,198.99777 367.67518,165.37001 345.47556,197.78062 C 319.19222,215.18614 337.27562,274.86182 362.23487,232.4634 L 365.32695,227.30809 L 368.34928,221.4787 z "
         id="path2433"
         style="fill-opacity:1.0;fill:url(#linearGradient3320);stroke:#000000;stroke-opacity:1;stroke-width:12.52865931;stroke-miterlimit:4;stroke-dasharray:none;stroke-linejoin:round;stroke-linecap:round"
         sodipodi:nodetypes="ccscsccsccssssccccccccccccccccccccccccccccccccc" />
    </g>
    <path
       style="fill:none;fill-opacity:0.75;fill-rule:evenodd;stroke:#000000;stroke-width:16;stroke-linecap:round;stroke-linejoin:round;stroke-opacity:1;stroke-miterlimit:4;stroke-dasharray:none"
       d="M 266.66667,108.33332 C 284.12484,145.52824 324.98077,178.64746 347.45973,211.91606 C 363.04836,228.77953 385.99791,240.12328 394.18053,262.85359 C 376.99604,275.63136 353.71633,294.04735 337.13881,308.08955 C 319.2303,323.25918 303.58934,339.41056 292.59774,361.58435 C 272.9752,401.16966 340.46197,489.37563 381.0457,512.18951"
       id="path3324"
       sodipodi:nodetypes="cccsss" />
    <path
       style="fill:none;fill-opacity:0.75;fill-rule:evenodd;stroke:#000000;stroke-width:16;stroke-linecap:round;stroke-linejoin:round;stroke-opacity:1;stroke-miterlimit:4;stroke-dasharray:none"
       d="M 268.70058,108.96764 C 289.91379,90.111457 368.87405,115.44945 443.12026,210.31961 C 517.36647,305.18977 573.93501,417.7376 593.9697,493.16233"
       id="path3328"
       sodipodi:nodetypes="css" />
    <path
       style="fill:none;fill-opacity:0.75;fill-rule:evenodd;stroke:#000000;stroke-width:16;stroke-linecap:round;stroke-linejoin:round;stroke-opacity:1;stroke-miterlimit:4;stroke-dasharray:none"
       d="M 381.83768,97.182526 C 483.69776,81.430647 718.69846,399.12489 714.17786,471.94913"
       id="path3330"
       sodipodi:nodetypes="cs" />
    <path
       style="fill:none;fill-opacity:0.75;fill-rule:evenodd;stroke:#000000;stroke-width:16;stroke-linecap:round;stroke-linejoin:round;stroke-miterlimit:4;stroke-dasharray:none;stroke-opacity:1"
       d="M 103.70898,262.17411 C 114.13404,250.47083 144.54702,225.46067 156.46684,195.09204 C 169.71327,161.34356 225.39896,172.35775 234.18279,183.57549 C 251.54326,205.74635 280.54367,245.98805 262.71345,288.03625"
       id="path3333"
       sodipodi:nodetypes="csss" />
    <path
       style="fill:none;fill-opacity:0.75;fill-rule:evenodd;stroke:#000000;stroke-width:16;stroke-linecap:round;stroke-linejoin:round;stroke-miterlimit:4;stroke-dasharray:none;stroke-opacity:1"
       d="M 275.77165,271.60219 C 275.49317,294.6008 258.64819,312.03732 241.13027,324.98217 C 221.44863,339.5259 198.50694,344.92572 187.61366,367.2126 C 180.6688,381.42129 172.04981,407.36619 174.41967,424.80867"
       id="path3343"
       sodipodi:nodetypes="csss" />
    <path
       style="fill:none;fill-opacity:0.75;fill-rule:evenodd;stroke:#000000;stroke-width:16;stroke-linecap:round;stroke-linejoin:round;stroke-miterlimit:4;stroke-dasharray:none;stroke-opacity:1"
       d="M 395.9798,573.30109 C 362.32812,583.10271 337.42583,548.27219 304.77617,548.87104 C 271.64453,539.71446 252.19061,582.43798 275.18166,605.35213 C 279.27691,612.50848 284.16878,619.23084 289.91379,625.1556"
       id="path3350" />
    <path
       style="fill:none;fill-opacity:0.75;fill-rule:evenodd;stroke:#000000;stroke-width:16;stroke-linecap:round;stroke-linejoin:round;stroke-opacity:1;stroke-miterlimit:4;stroke-dasharray:none"
       d="M 172.06265,497.87638 C 174.72949,503.21004 174.41968,522.89914 174.41968,535.58874 C 174.41968,550.45351 169.14362,555.56894 164.99159,563.87301"
       id="path3352" />
    <path
       style="fill:none;fill-opacity:0.75;fill-rule:evenodd;stroke:#000000;stroke-width:16;stroke-linecap:round;stroke-linejoin:round;stroke-opacity:1;stroke-miterlimit:4;stroke-dasharray:none"
       d="M 433.69217,356.45502 C 464.94408,366.46328 482.96276,454.99621 499.6888,488.44829"
       id="path3364" />
    <path
       style="fill:none;fill-opacity:0.75;fill-rule:evenodd;stroke:#000000;stroke-width:16;stroke-linecap:round;stroke-linejoin:round;stroke-miterlimit:4;stroke-dasharray:none;stroke-opacity:1"
       d="M 174.82407,201.29592 C 163.89415,200.78598 151.25385,198.92373 151.25385,217.79508 C 151.25385,234.13741 166.94094,225.67821 172.46705,220.1521 C 179.1049,213.51425 177.17726,213.06186 174.82407,201.29592 z "
       id="path3366" />
  </g>
</svg>
