<?xml version="1.0" encoding="UTF-8" standalone="no"?>
<svg
   xmlns:dc="http://purl.org/dc/elements/1.1/"
   xmlns:cc="http://web.resource.org/cc/"
   xmlns:rdf="http://www.w3.org/1999/02/22-rdf-syntax-ns#"
   xmlns:svg="http://www.w3.org/2000/svg"
   xmlns="http://www.w3.org/2000/svg"
   xmlns:sodipodi="http://inkscape.sourceforge.net/DTD/sodipodi-0.dtd"
   xmlns:inkscape="http://www.inkscape.org/namespaces/inkscape"
   version="1.0"
   width="468pt"
   height="468pt"
   viewBox="0 0 468 468"
   preserveAspectRatio="xMidYMid meet"
   id="svg1547"
   sodipodi:version="0.32"
   inkscape:version="0.43"
   sodipodi:docbase="/home/monge/shogi/pieces"
   sodipodi:docname="shogihorse-piece.svg">
  <defs
     id="defs1564" />
  <sodipodi:namedview
     inkscape:window-height="548"
     inkscape:window-width="962"
     inkscape:pageshadow="2"
     inkscape:pageopacity="0.0"
     borderopacity="1.0"
     bordercolor="#666666"
     pagecolor="#ffffff"
     id="base"
     inkscape:zoom="0.63931624"
     inkscape:cx="292.5"
     inkscape:cy="292.5"
     inkscape:window-x="310"
     inkscape:window-y="416"
     inkscape:current-layer="svg1547" />
  <metadata
     id="metadata1549">
Created by potrace 1.7, written by Peter Selinger 2001-2005
<rdf:RDF>
  <cc:Work
     rdf:about="">
    <dc:format>image/svg+xml</dc:format>
    <dc:type
       rdf:resource="http://purl.org/dc/dcmitype/StillImage" />
  </cc:Work>
</rdf:RDF>
</metadata>
  <g
     transform="translate(0,468) scale(0.468000,-0.468000)"
     fill="#000000"
     stroke="none"
     id="g1551">
    <path
       d="M392 822 c-7 -5 -11 -23 -10 -42 3 -30 0 -34 -21 -35 -33 0 -38 -23 -7 -31 14 -3 26 -9 26 -12 0 -3 -13 -29 -30 -59 -34 -60 -35 -63 -16 -63 8 0 24 15 35 33 l22 32 -3 -67 c-1 -37 0 -70 4 -73 17 -18 28 12 28 78 0 64 1 69 14 51 14 -18 16 -18 28 -2 7 9 24 18 38 20 19 2 26 -2 28 -19 3 -20 -1 -22 -34 -20 -30 1 -39 -2 -42 -15 -3 -15 4 -18 37 -18 37 0 41 -3 41 -24 0 -22 -4 -24 -47 -23 -38 2 -48 -2 -51 -15 -3 -16 7 -18 105 -18 115 0 160 13 131 38 -11 9 -22 9 -45 0 -37 -14 -63 -5 -63 22 0 17 6 20 39 20 46 0 58 12 35 35 -12 11 -20 13 -27 6 -19 -19 -47 -13 -47 9 0 17 7 20 43 20 23 0 49 5 57 10 13 8 13 11 -1 26 -13 12 -21 14 -37 5 -36 -19 -62 -14 -62 13 0 22 5 25 43 28 29 2 42 8 42 18 0 12 -10 14 -44 12 -42 -4 -43 -3 -39 22 6 32 -14 53 -31 32 -7 -8 -10 -24 -6 -36 5 -17 2 -20 -22 -21 -15 0 -41 -2 -56 -3 -26 -2 -28 1 -25 33 3 35 -7 47 -30 33z m136 -116 c-2 -17 -9 -20 -35 -18 -17 2 -34 -2 -38 -8 -5 -8 -11 -8 -21 1 -20 17 -17 39 5 39 11 0 22 4 25 8 3 5 19 7 36 4 25 -4 30 -9 28 -26z"
       id="path1555" />
    <path
       d="M594 469 c-5 -8 -38 -10 -105 -7 l-99 5 0 -108 c0 -59 3 -109 8 -111 4 -1 15 -20 24 -40 10 -21 24 -38 33 -38 23 0 18 38 -9 65 -13 13 -21 26 -18 29 3 3 47 6 99 6 l93 0 0 -27 0 -26 -23 21 c-26 25 -47 29 -47 9 0 -19 45 -59 55 -50 4 5 5 3 1 -4 -4 -8 -18 -10 -36 -6 -34 6 -39 -6 -12 -30 40 -37 71 -11 93 76 15 63 6 71 -71 68 -71 -3 -83 16 -13 21 37 2 49 7 51 22 4 16 -1 17 -47 11 -42 -6 -51 -4 -51 9 0 11 13 16 48 18 34 2 47 7 47 18 0 12 -10 14 -47 12 -30 -3 -48 0 -48 7 0 6 20 11 48 11 55 0 77 11 69 34 -7 18 -33 21 -43 5z m-109 -49 c4 -6 -8 -10 -29 -10 -20 0 -36 5 -36 10 0 6 13 10 29 10 17 0 33 -4 36 -10z m5 -55 c0 -10 -11 -15 -35 -15 -24 0 -35 5 -35 15 0 10 11 15 35 15 24 0 35 -5 35 -15z m-4 -46 c9 -16 -17 -30 -41 -23 -26 8 -28 11 -20 23 8 14 52 14 61 0z"
       id="path1557" />
    <path
       d="M355 228 c-18 -37 -14 -73 7 -66 19 7 32 57 20 81 -9 21 -10 20 -27 -15z"
       id="path1559" />
    <path
       d="M480 249 c0 -16 33 -69 42 -69 18 0 20 31 4 55 -17 25 -46 34 -46 14z"
       id="path1561" />
  </g>
</svg>
