<?xml version="1.0" encoding="UTF-8" standalone="no"?>
<svg
   xmlns:dc="http://purl.org/dc/elements/1.1/"
   xmlns:cc="http://web.resource.org/cc/"
   xmlns:rdf="http://www.w3.org/1999/02/22-rdf-syntax-ns#"
   xmlns:svg="http://www.w3.org/2000/svg"
   xmlns="http://www.w3.org/2000/svg"
   xmlns:sodipodi="http://inkscape.sourceforge.net/DTD/sodipodi-0.dtd"
   xmlns:inkscape="http://www.inkscape.org/namespaces/inkscape"
   version="1.0"
   width="468pt"
   height="468pt"
   viewBox="0 0 468 468"
   preserveAspectRatio="xMidYMid meet"
   id="svg1511"
   sodipodi:version="0.32"
   inkscape:version="0.43"
   sodipodi:docbase="/home/monge/shogi/pieces"
   sodipodi:docname="psilver-piece.svg">
  <defs
     id="defs1524" />
  <sodipodi:namedview
     inkscape:window-height="548"
     inkscape:window-width="962"
     inkscape:pageshadow="2"
     inkscape:pageopacity="0.0"
     borderopacity="1.0"
     bordercolor="#666666"
     pagecolor="#ffffff"
     id="base"
     inkscape:zoom="0.63931624"
     inkscape:cx="292.5"
     inkscape:cy="292.5"
     inkscape:window-x="24"
     inkscape:window-y="348"
     inkscape:current-layer="svg1511" />
  <metadata
     id="metadata1513">
Created by potrace 1.7, written by Peter Selinger 2001-2005
<rdf:RDF>
  <cc:Work
     rdf:about="">
    <dc:format>image/svg+xml</dc:format>
    <dc:type
       rdf:resource="http://purl.org/dc/dcmitype/StillImage" />
  </cc:Work>
</rdf:RDF>
</metadata>
  <g
     transform="translate(0,468) scale(0.468000,-0.468000)"
     fill="#000000"
     stroke="none"
     id="g1515">
    <path
       d="M467 635 c5 -33 1 -40 -76 -118 -77 -79 -94 -109 -47 -86 11 6 49 38 83 72 71 70 61 71 174 -27 55 -48 66 -54 78 -42 22 23 7 42 -79 98 -73 48 -79 55 -74 80 4 20 0 30 -18 42 -36 26 -47 21 -41 -19z"
       id="path1519" />
    <path
       d="M473 483 c-48 -5 -56 -19 -17 -33 34 -13 20 -32 -21 -28 -42 3 -54 -7 -26 -22 25 -13 27 -35 5 -44 -10 -4 -13 -13 -9 -27 4 -13 1 -27 -10 -39 -34 -37 -13 -50 77 -50 96 0 128 7 128 26 0 15 -6 17 -54 18 -38 1 -45 23 -12 36 33 12 34 30 1 30 -33 0 -36 37 -3 42 28 4 36 28 9 28 -31 0 -35 19 -7 32 32 14 34 39 4 36 -13 -1 -42 -3 -65 -5z m-3 -187 c0 -19 -17 -29 -37 -22 -12 5 -13 9 -3 21 16 19 40 19 40 1z"
       id="path1521" />
  </g>
</svg>
