<?xml version="1.0" encoding="UTF-8" standalone="no"?>
<!-- Created with Inkscape (http://www.inkscape.org/) -->
<svg
   xmlns:dc="http://purl.org/dc/elements/1.1/"
   xmlns:cc="http://web.resource.org/cc/"
   xmlns:rdf="http://www.w3.org/1999/02/22-rdf-syntax-ns#"
   xmlns:svg="http://www.w3.org/2000/svg"
   xmlns="http://www.w3.org/2000/svg"
   xmlns:xlink="http://www.w3.org/1999/xlink"
   xmlns:sodipodi="http://inkscape.sourceforge.net/DTD/sodipodi-0.dtd"
   xmlns:inkscape="http://www.inkscape.org/namespaces/inkscape"
   width="700pt"
   height="700pt"
   id="svg36220"
   sodipodi:version="0.32"
   inkscape:version="0.42+0.43pre2"
   version="1.0"
   inkscape:export-filename="/home/maurizio/out/wp.png"
   inkscape:export-xdpi="90"
   inkscape:export-ydpi="90"
   sodipodi:docbase="/home/monge/kboard/themes/Pieces/FantasySVG"
   sodipodi:docname="wh.svg">
  <defs
     id="defs36222">
    <linearGradient
       inkscape:collect="always"
       xlink:href="#linearGradient3070"
       id="linearGradient1935"
       gradientUnits="userSpaceOnUse"
       gradientTransform="matrix(1.646151,0.101471,-0.101471,1.646151,-430.7695,-176.0145)"
       x1="456.672"
       y1="496.70807"
       x2="790.85327"
       y2="285.25974" />
    <linearGradient
       inkscape:collect="always"
       xlink:href="#linearGradient3070"
       id="linearGradient3140"
       gradientUnits="userSpaceOnUse"
       gradientTransform="matrix(1.174281,-0.166511,0.157374,1.208875,93.87221,-356.9796)"
       x1="241.75385"
       y1="401.27609"
       x2="522.97559"
       y2="519.06158" />
    <linearGradient
       id="linearGradient3070">
      <stop
         style="stop-color:#ffffff;stop-opacity:1;"
         offset="0"
         id="stop3072" />
      <stop
         style="stop-color:#d0b090;stop-opacity:1;"
         offset="1"
         id="stop3074" />
    </linearGradient>
    <linearGradient
       inkscape:collect="always"
       xlink:href="#linearGradient3070"
       id="linearGradient3076"
       x1="586.52576"
       y1="328.04306"
       x2="1126.0223"
       y2="534.203"
       gradientUnits="userSpaceOnUse" />
    <linearGradient
       inkscape:collect="always"
       xlink:href="#linearGradient3070"
       id="linearGradient3084"
       x1="275.24356"
       y1="458.6561"
       x2="862.65161"
       y2="560.7475"
       gradientUnits="userSpaceOnUse"
       gradientTransform="translate(-46.00000,0.000000)" />
    <linearGradient
       inkscape:collect="always"
       xlink:href="#linearGradient3070"
       id="linearGradient3092"
       x1="300.27295"
       y1="623.78223"
       x2="774.0462"
       y2="764.89874"
       gradientUnits="userSpaceOnUse"
       gradientTransform="translate(-46.00000,0.000000)" />
    <linearGradient
       inkscape:collect="always"
       xlink:href="#linearGradient3070"
       id="linearGradient3747"
       x1="878.75458"
       y1="1824.9863"
       x2="4560.0732"
       y2="2495.8965"
       gradientUnits="userSpaceOnUse" />
    <linearGradient
       inkscape:collect="always"
       xlink:href="#linearGradient3070"
       id="linearGradient3749"
       gradientUnits="userSpaceOnUse"
       x1="983.52972"
       y1="1636.391"
       x2="3009.4004"
       y2="2590.1943" />
  </defs>
  <sodipodi:namedview
     id="base"
     pagecolor="#ffffff"
     bordercolor="#666666"
     borderopacity="1.0"
     inkscape:pageopacity="0.0"
     inkscape:pageshadow="2"
     inkscape:zoom="0.42426406"
     inkscape:cx="585.89894"
     inkscape:cy="433.97504"
     inkscape:current-layer="layer1"
     inkscape:document-units="px"
     inkscape:window-width="962"
     inkscape:window-height="633"
     inkscape:window-x="0"
     inkscape:window-y="0" />
  <metadata
     id="metadata36225">
    <rdf:RDF>
      <cc:Work
         rdf:about="">
        <dc:format>image/svg+xml</dc:format>
        <dc:type
           rdf:resource="http://purl.org/dc/dcmitype/StillImage" />
        <dc:rights>
          <cc:Agent>
            <dc:title>Maurizio Monge</dc:title>
          </cc:Agent>
        </dc:rights>
        <dc:creator>
          <cc:Agent>
            <dc:title>Maurizio Monge</dc:title>
          </cc:Agent>
        </dc:creator>
        <cc:license
           rdf:resource="http://creativecommons.org/licenses/GPL/2.0/" />
      </cc:Work>
      <cc:License
         rdf:about="http://creativecommons.org/licenses/GPL/2.0/">
        <cc:permits
           rdf:resource="http://web.resource.org/cc/Reproduction" />
        <cc:permits
           rdf:resource="http://web.resource.org/cc/Distribution" />
        <cc:requires
           rdf:resource="http://web.resource.org/cc/Notice" />
        <cc:permits
           rdf:resource="http://web.resource.org/cc/DerivativeWorks" />
        <cc:requires
           rdf:resource="http://web.resource.org/cc/ShareAlike" />
        <cc:requires
           rdf:resource="http://web.resource.org/cc/SourceCode" />
      </cc:License>
    </rdf:RDF>
  </metadata>
  <g
     id="layer1"
     inkscape:label="Layer 1"
     inkscape:groupmode="layer">
    <g
       transform="matrix(0.224960,0.000000,0.000000,-0.224960,74.84982,877.5805)"
       id="g2850"
       style="fill:url(#linearGradient3747);fill-opacity:1;stroke:#000000;stroke-width:74.72689819;stroke-miterlimit:4;stroke-dasharray:none;stroke-opacity:1">
      <path
         d="M 1406,3722 C 1404,3718 1405,3708 1411,3700 C 1423,3680 1422,3610 1410,3610 C 1404,3610 1383,3625 1364,3643 C 1290,3709 1279,3705 1303,3616 C 1312,3580 1320,3549 1320,3546 C 1320,3543 1306,3533 1288,3524 C 1270,3515 1218,3478 1171,3443 C 1095,3386 1081,3371 1039,3292 C 1004,3229 966,3179 901,3112 C 851,3061 810,3015 810,3009 C 810,3003 815,2989 822,2977 C 829,2965 836,2938 839,2916 C 844,2883 850,2876 883,2862 C 921,2847 922,2847 950,2879 C 978,2909 1010,2921 1010,2901 C 1010,2895 1001,2875 989,2856 C 978,2837 971,2816 975,2810 C 978,2805 1002,2800 1028,2800 C 1069,2800 1078,2804 1092,2828 C 1100,2843 1110,2872 1114,2892 C 1119,2920 1129,2934 1150,2945 C 1167,2954 1250,2996 1250,2981 C 1250,2976 1244,2967 1236,2963 C 1228,2959 1222,2953 1222,2950 C 1224,2939 1177,2819 1169,2814 C 1164,2811 1160,2800 1160,2790 C 1160,2751 1110,2665 1069,2635 C 1046,2619 1004,2579 975,2548 C 925,2494 920,2491 890,2500 C 873,2505 843,2519 824,2531 C 773,2562 724,2553 584,2485 C 519,2454 425,2414 375,2398 C 326,2382 277,2361 266,2352 C 239,2327 197,2228 211,2220 C 217,2215 214,2211 201,2207 C 189,2204 180,2195 180,2187 C 180,2179 164,2155 145,2135 C 101,2087 89,2049 94,1980 C 99,1915 102,1914 203,1967 C 283,2009 298,2029 274,2064 C 257,2092 262,2112 285,2104 C 299,2098 305,2108 330,2175 C 358,2249 360,2251 444,2290 C 490,2312 533,2330 541,2330 C 549,2330 573,2337 595,2345 C 649,2364 702,2363 747,2343 C 790,2323 798,2313 821,2253 C 830,2230 854,2191 875,2166 C 895,2141 909,2117 907,2113 C 904,2108 839,2105 762,2106 L 622,2108 L 590,2075 C 559,2043 558,2040 568,1998 C 584,1936 602,1669 596,1575 C 591,1476 597,1465 692,1374 L 766,1304 L 843,1310 C 885,1314 923,1320 927,1323 C 930,1327 922,1347 908,1367 C 895,1388 872,1422 859,1442 C 835,1480 813,1489 793,1469 C 777,1453 763,1465 757,1502 C 754,1520 745,1555 737,1580 C 723,1621 701,1857 708,1880 C 710,1886 716,1890 722,1890 C 728,1890 738,1898 745,1907 C 756,1922 761,1922 803,1902 C 850,1880 1071,1810 1093,1810 C 1100,1810 1142,1780 1185,1744 C 1229,1707 1285,1664 1310,1647 C 1335,1630 1396,1589 1413,1576 C 1461,1541 1628,1455 1688,1435 C 1747,1416 1747,1416 1753,1345 C 1758,1290 1803,1159 1830,1120 C 1840,1106 1857,1075 1870,1051 C 1882,1026 1897,1001 1904,994 C 1910,988 1934,961 1956,934 C 1979,907 2010,872 2024,855 C 2038,839 2053,810 2056,792 C 2067,737 2014,478 1979,410 C 1962,378 1959,358 1963,320 C 1967,287 1965,268 1957,263 C 1935,248 1880,162 1880,141 C 1880,122 1886,120 1948,119 C 2141,114 2155,115 2152,128 C 2151,135 2148,171 2146,208 C 2142,260 2145,279 2158,293 C 2171,308 2172,319 2164,360 C 2156,395 2152,439 2165,490 C 2192,595 2211,644 2233,668 C 2251,687 2254,701 2252,756 C 2250,792 2253,820 2257,818 C 2279,809 2360,743 2366,730 C 2384,689 2389,641 2380,595 C 2375,568 2368,524 2365,499 C 2362,474 2351,444 2341,434 C 2331,423 2320,401 2316,385 C 2312,368 2300,346 2290,335 C 2281,324 2270,299 2266,278 C 2262,258 2253,239 2244,236 C 2228,230 2191,156 2190,130 C 2190,117 2210,114 2318,113 C 2388,112 2452,115 2460,120 C 2472,128 2472,136 2461,177 C 2442,240 2445,275 2469,309 C 2481,326 2487,347 2485,361 C 2475,411 2517,563 2571,672 C 2604,738 2604,740 2587,772 C 2578,790 2554,825 2535,850 C 2484,915 2450,989 2450,1035 C 2450,1069 2460,1089 2509,1156 C 2563,1229 2630,1354 2630,1380 C 2630,1395 2652,1392 2680,1373 C 2715,1349 2779,1230 2789,1155 C 2795,1117 2801,1031 2804,965 C 2814,699 2872,568 3027,459 C 3074,427 3092,420 3132,420 C 3158,420 3180,424 3180,429 C 3180,434 3168,453 3154,470 C 3122,507 3126,514 3169,499 C 3186,493 3207,491 3215,494 C 3229,499 3229,504 3216,535 C 3208,554 3204,570 3208,570 C 3211,570 3204,577 3192,586 C 3165,605 3163,630 3189,630 C 3220,630 3223,647 3199,679 C 3187,695 3181,713 3184,719 C 3188,725 3152,769 3134,828 C 3120,874 3122,876 3160,855 C 3192,837 3200,837 3200,855 C 3200,863 3215,876 3204,884 C 3170,908 3136,1006 3125,1110 C 3109,1258 3053,1406 2989,1468 C 2915,1540 2809,1566 2705,1536 C 2674,1526 2647,1520 2646,1522 C 2639,1531 2615,1596 2615,1605 C 2615,1616 2597,1642 2543,1712 C 2526,1735 2484,1781 2474,1795 C 2440,1840 2342,1911 2232,1968 C 2173,1998 2112,2031 2095,2041 C 2079,2051 2047,2068 2025,2080 C 1965,2113 1914,2157 1881,2203 C 1830,2275 1799,2327 1790,2359 C 1782,2388 1783,2390 1806,2390 C 1820,2390 1862,2362 1881,2353 C 1930,2329 2010,2324 2035,2345 C 2051,2358 2052,2362 2041,2367 C 2008,2380 1920,2487 1920,2513 C 1920,2521 1911,2530 1900,2533 C 1874,2540 1863,2569 1881,2581 C 1896,2592 2010,2588 2028,2576 C 2035,2572 2040,2574 2040,2582 C 2039,2604 1997,2665 1958,2699 C 1919,2733 1909,2764 1933,2773 C 1941,2776 1969,2774 1996,2769 C 2073,2754 2078,2763 2023,2821 C 1997,2849 1966,2882 1955,2894 C 1944,2905 1924,2922 1911,2931 C 1895,2941 1889,2952 1893,2963 C 1899,2978 1902,2978 1936,2964 C 1956,2956 1990,2938 2011,2924 C 2055,2897 2090,2893 2090,2915 C 2090,2923 2084,2930 2077,2930 C 2069,2930 2049,2949 2032,2973 C 2015,2996 1983,3035 1961,3060 C 1895,3134 1907,3138 2017,3080 C 2101,3036 2122,3030 2097,3058 C 2087,3068 2080,3080 2080,3083 C 2080,3095 2012,3195 1991,3214 C 1980,3225 1949,3239 1923,3246 C 1896,3252 1850,3286 1852,3293 C 1859,3311 1923,3313 1965,3296 C 2011,3276 2010,3276 2010,3299 C 2010,3321 2002,3328 1925,3370 C 1863,3404 1818,3439 1852,3427 C 1862,3423 1888,3452 1943,3464 C 1990,3475 1972,3490 1912,3490 C 1864,3490 1840,3497 1767,3534 C 1697,3569 1664,3579 1605,3585 C 1564,3589 1530,3595 1530,3600 C 1530,3604 1512,3631 1490,3659 C 1449,3710 1415,3736 1406,3722 z "
         id="path2856"
         sodipodi:nodetypes="ccsccsscccsscccsccscccssccscccccccccscccccccsccccccccccccccccscccsccscscccccsccccccscccccccccccscccccccccsccccscsccccssccccscsscccscccccscccccccscccsccccsscccccccssccccsccccscccsccscc"
         style="fill:url(#linearGradient3749);fill-opacity:1;stroke:#000000;stroke-width:74.72689819;stroke-miterlimit:4;stroke-dasharray:none;stroke-opacity:1" />
    </g>
  </g>
</svg>
