<?xml version="1.0" encoding="UTF-8" standalone="no"?>
<svg
   xmlns:dc="http://purl.org/dc/elements/1.1/"
   xmlns:cc="http://web.resource.org/cc/"
   xmlns:rdf="http://www.w3.org/1999/02/22-rdf-syntax-ns#"
   xmlns:svg="http://www.w3.org/2000/svg"
   xmlns="http://www.w3.org/2000/svg"
   xmlns:sodipodi="http://inkscape.sourceforge.net/DTD/sodipodi-0.dtd"
   xmlns:inkscape="http://www.inkscape.org/namespaces/inkscape"
   version="1.0"
   width="468pt"
   height="468pt"
   viewBox="0 0 468 468"
   preserveAspectRatio="xMidYMid meet"
   id="svg1526"
   sodipodi:version="0.32"
   inkscape:version="0.43"
   sodipodi:docbase="/home/monge/shogi/pieces"
   sodipodi:docname="shogibishop-piece.svg">
  <defs
     id="defs1545" />
  <sodipodi:namedview
     inkscape:window-height="548"
     inkscape:window-width="962"
     inkscape:pageshadow="2"
     inkscape:pageopacity="0.0"
     borderopacity="1.0"
     bordercolor="#666666"
     pagecolor="#ffffff"
     id="base"
     inkscape:zoom="0.63931624"
     inkscape:cx="292.5"
     inkscape:cy="292.5"
     inkscape:window-x="0"
     inkscape:window-y="0"
     inkscape:current-layer="svg1526" />
  <metadata
     id="metadata1528">
Created by potrace 1.7, written by Peter Selinger 2001-2005
<rdf:RDF>
  <cc:Work
     rdf:about="">
    <dc:format>image/svg+xml</dc:format>
    <dc:type
       rdf:resource="http://purl.org/dc/dcmitype/StillImage" />
  </cc:Work>
</rdf:RDF>
</metadata>
  <g
     transform="translate(0,468) scale(0.468000,-0.468000)"
     fill="#000000"
     stroke="none"
     id="g1530">
    <path
       d="M436 828 c-11 -18 -34 -50 -53 -71 -19 -21 -31 -43 -27 -48 4 -8 10 -7 17 0 21 21 27 11 27 -47 0 -49 -5 -65 -30 -98 -16 -21 -30 -42 -30 -46 0 -19 24 -5 63 36 44 47 64 52 170 48 32 -2 37 -5 37 -27 0 -21 -5 -25 -30 -25 -38 0 -38 -15 -1 -35 27 -13 31 -13 50 3 17 15 20 31 23 132 l2 115 -54 -3 -55 -3 24 21 c20 17 23 25 14 38 -6 9 -17 15 -25 13 -47 -14 -66 -13 -65 5 3 34 -36 28 -57 -8z m84 -53 c-13 -16 -80 -21 -80 -6 0 13 19 19 59 20 29 1 32 -1 21 -14z m-12 -58 c3 -14 -4 -17 -32 -17 -25 0 -36 5 -36 14 0 28 63 31 68 3z m102 -2 c0 -10 -11 -15 -35 -15 -24 0 -35 5 -35 15 0 10 11 15 35 15 24 0 35 -5 35 -15z m-102 -62 c-4 -23 -68 -32 -68 -10 0 20 10 27 42 27 23 0 29 -4 26 -17z m100 -6 c3 -15 -2 -18 -30 -15 -22 2 -34 9 -36 21 -3 15 2 18 30 15 22 -2 34 -9 36 -21z"
       id="path1534" />
    <path
       d="M354 446 c-3 -13 -19 -33 -35 -45 -37 -28 -37 -41 1 -41 38 0 40 -23 4 -53 -86 -72 -89 -76 -78 -87 9 -9 17 -9 32 -1 35 19 42 13 42 -38 0 -54 13 -73 29 -42 16 28 13 73 -4 98 -14 20 -13 24 17 58 26 31 30 40 20 53 -24 33 -24 43 -2 67 19 20 21 27 10 40 -18 21 -29 19 -36 -9z"
       id="path1536" />
    <path
       d="M560 434 c-25 -8 -50 -12 -57 -10 -22 9 -24 -13 -2 -25 40 -21 169 6 169 36 0 19 -47 19 -110 -1z"
       id="path1538" />
    <path
       d="M615 349 c-54 -13 -96 -17 -130 -13 l-50 6 20 -22 c18 -20 26 -22 85 -16 36 4 100 9 143 13 56 4 77 9 77 20 0 7 -12 18 -26 23 -30 12 -20 13 -119 -11z"
       id="path1540" />
    <path
       d="M665 235 l7 -65 -41 0 c-59 0 -58 -16 1 -39 l53 -20 18 21 c9 11 17 35 17 54 0 45 -29 114 -47 114 -13 0 -14 -11 -8 -65z"
       id="path1542" />
  </g>
</svg>
