<?xml version="1.0" encoding="UTF-8" standalone="no"?>
<svg
   xmlns:dc="http://purl.org/dc/elements/1.1/"
   xmlns:cc="http://web.resource.org/cc/"
   xmlns:rdf="http://www.w3.org/1999/02/22-rdf-syntax-ns#"
   xmlns:svg="http://www.w3.org/2000/svg"
   xmlns="http://www.w3.org/2000/svg"
   xmlns:sodipodi="http://inkscape.sourceforge.net/DTD/sodipodi-0.dtd"
   xmlns:inkscape="http://www.inkscape.org/namespaces/inkscape"
   version="1.0"
   width="468pt"
   height="468pt"
   viewBox="0 0 468 468"
   preserveAspectRatio="xMidYMid meet"
   id="svg1589"
   sodipodi:version="0.32"
   inkscape:version="0.43"
   sodipodi:docbase="/home/monge/shogi/pieces"
   sodipodi:docname="shogilance-piece.svg">
  <defs
     id="defs1602" />
  <sodipodi:namedview
     inkscape:window-height="548"
     inkscape:window-width="962"
     inkscape:pageshadow="2"
     inkscape:pageopacity="0.0"
     borderopacity="1.0"
     bordercolor="#666666"
     pagecolor="#ffffff"
     id="base"
     inkscape:zoom="0.63931624"
     inkscape:cx="292.5"
     inkscape:cy="292.5"
     inkscape:window-x="0"
     inkscape:window-y="416"
     inkscape:current-layer="svg1589" />
  <metadata
     id="metadata1591">
Created by potrace 1.7, written by Peter Selinger 2001-2005
<rdf:RDF>
  <cc:Work
     rdf:about="">
    <dc:format>image/svg+xml</dc:format>
    <dc:type
       rdf:resource="http://purl.org/dc/dcmitype/StillImage" />
  </cc:Work>
</rdf:RDF>
</metadata>
  <g
     transform="translate(0,468) scale(0.468000,-0.468000)"
     fill="#000000"
     stroke="none"
     id="g1593">
    <path
       d="M495 805 c-27 -7 -71 -14 -97 -14 -36 -1 -48 -5 -48 -16 0 -12 13 -15 55 -15 30 0 55 -4 55 -9 0 -5 -30 -8 -67 -8 -55 2 -68 -1 -68 -13 0 -12 12 -15 55 -13 52 2 54 1 35 -13 -11 -9 -34 -22 -52 -30 -36 -16 -49 -32 -36 -45 5 -5 32 5 67 26 32 19 60 35 61 35 2 0 5 -14 7 -31 l5 -31 -44 6 -43 6 0 -80 c0 -63 3 -80 14 -80 8 0 18 5 21 10 9 14 135 13 135 -1 0 -6 6 -9 13 -7 6 3 15 31 19 64 4 32 8 65 9 72 1 7 8 11 15 8 15 -6 58 24 47 34 -4 4 -29 13 -56 20 -62 17 -69 30 -15 30 52 0 73 12 64 35 -5 14 -13 16 -39 11 -93 -19 -107 -19 -107 -2 0 12 10 16 38 16 21 0 42 3 45 7 7 7 -21 44 -32 42 -3 -1 -28 -7 -56 -14z m69 -167 c-3 -4 -21 -8 -41 -8 -28 0 -34 3 -29 16 3 9 6 24 6 35 0 18 3 18 34 -8 19 -15 32 -31 30 -35z m-19 -48 c4 -6 -18 -10 -59 -10 -37 0 -66 4 -66 10 0 6 26 10 59 10 33 0 63 -4 66 -10z m5 -50 c0 -6 -28 -10 -65 -10 -37 0 -65 4 -65 10 0 6 28 10 65 10 37 0 65 -4 65 -10z"
       id="path1597" />
    <path
       d="M463 448 c2 -21 -2 -23 -40 -22 -24 0 -43 -3 -43 -7 0 -14 24 -23 53 -21 19 2 27 -2 25 -10 -6 -16 -57 -29 -91 -22 -26 5 -27 4 -17 -21 13 -34 13 -102 0 -110 -5 -3 -19 -1 -31 5 -11 6 -28 9 -37 5 -15 -6 -13 -10 11 -30 26 -23 29 -24 75 -10 68 21 80 19 84 -12 4 -37 24 -39 36 -3 13 36 40 39 134 14 45 -11 64 -12 72 -4 17 17 -21 40 -66 40 -44 0 -45 3 -18 64 l19 46 -22 15 c-12 8 -41 15 -64 15 -24 0 -43 5 -43 10 0 6 18 10 40 10 29 0 40 4 40 15 0 9 -9 15 -21 15 -11 0 -32 9 -46 20 -34 27 -53 26 -50 -2z m110 -110 c7 -11 8 -29 1 -55 -8 -35 -12 -38 -46 -41 -40 -3 -52 12 -18 23 11 3 20 11 20 16 0 5 -9 9 -20 9 -27 0 -26 18 2 22 28 4 36 28 9 28 -12 0 -21 5 -21 11 0 16 62 6 73 -13z m-113 3 c0 -11 -39 -25 -47 -18 -3 3 -2 10 2 16 8 13 45 15 45 2z m-5 -41 c3 -6 -4 -14 -17 -20 l-23 -9 22 -7 c30 -9 19 -24 -18 -24 -30 0 -37 17 -23 54 7 18 49 22 59 6z"
       id="path1599" />
  </g>
</svg>
