<?xml version="1.0" encoding="UTF-8" standalone="no"?>
<svg
   xmlns:dc="http://purl.org/dc/elements/1.1/"
   xmlns:cc="http://web.resource.org/cc/"
   xmlns:rdf="http://www.w3.org/1999/02/22-rdf-syntax-ns#"
   xmlns:svg="http://www.w3.org/2000/svg"
   xmlns="http://www.w3.org/2000/svg"
   xmlns:sodipodi="http://inkscape.sourceforge.net/DTD/sodipodi-0.dtd"
   xmlns:inkscape="http://www.inkscape.org/namespaces/inkscape"
   version="1.0"
   width="468pt"
   height="468pt"
   viewBox="0 0 468 468"
   preserveAspectRatio="xMidYMid meet"
   id="svg1447"
   sodipodi:version="0.32"
   inkscape:version="0.43"
   sodipodi:docbase="/home/monge/shogi/pieces"
   sodipodi:docname="phorse-piece.svg">
  <defs
     id="defs1464" />
  <sodipodi:namedview
     inkscape:window-height="700"
     inkscape:window-width="1092"
     inkscape:pageshadow="2"
     inkscape:pageopacity="0.0"
     borderopacity="1.0"
     bordercolor="#666666"
     pagecolor="#ffffff"
     id="base"
     inkscape:zoom="0.63931624"
     inkscape:cx="292.5"
     inkscape:cy="292.5"
     inkscape:window-x="82"
     inkscape:window-y="114"
     inkscape:current-layer="svg1447" />
  <metadata
     id="metadata1449">
Created by potrace 1.7, written by Peter Selinger 2001-2005
<rdf:RDF>
  <cc:Work
     rdf:about="">
    <dc:format>image/svg+xml</dc:format>
    <dc:type
       rdf:resource="http://purl.org/dc/dcmitype/StillImage" />
  </cc:Work>
</rdf:RDF>
</metadata>
  <g
     transform="translate(0,468) scale(0.468000,-0.468000)"
     fill="#000000"
     stroke="none"
     id="g1451">
    <path
       d="M440 671 c0 -21 -16 -46 -61 -95 -34 -37 -59 -70 -55 -73 13 -13 176 117 176 141 0 13 -41 56 -53 56 -4 0 -7 -13 -7 -29z"
       id="path1455" />
    <path
       d="M594 524 c69 -67 91 -73 84 -23 -3 27 -97 89 -133 89 -15 -1 -5 -15 49 -66z"
       id="path1457" />
    <path
       d="M455 551 c-3 -5 0 -13 6 -16 6 -4 8 -18 4 -32 -6 -24 -4 -25 22 -19 54 14 55 34 3 61 -17 9 -31 11 -35 6z"
       id="path1459" />
    <path
       d="M420 451 l-45 -6 24 -17 c15 -11 35 -15 60 -12 l36 5 -34 -18 c-47 -25 -58 -45 -42 -77 11 -21 12 -28 1 -41 -23 -27 5 -46 64 -43 44 3 51 6 54 25 2 15 -3 23 -18 28 -19 6 -20 9 -7 28 23 36 30 103 11 121 -16 16 -27 17 -104 7z m73 -77 c11 -12 -13 -44 -33 -44 -22 0 -28 35 -7 43 18 8 33 8 40 1z"
       id="path1461" />
  </g>
</svg>
