<?xml version="1.0" encoding="UTF-8" standalone="no"?>
<svg
   xmlns:dc="http://purl.org/dc/elements/1.1/"
   xmlns:cc="http://web.resource.org/cc/"
   xmlns:rdf="http://www.w3.org/1999/02/22-rdf-syntax-ns#"
   xmlns:svg="http://www.w3.org/2000/svg"
   xmlns="http://www.w3.org/2000/svg"
   xmlns:sodipodi="http://inkscape.sourceforge.net/DTD/sodipodi-0.dtd"
   xmlns:inkscape="http://www.inkscape.org/namespaces/inkscape"
   version="1.0"
   width="468pt"
   height="468pt"
   viewBox="0 0 468 468"
   preserveAspectRatio="xMidYMid meet"
   id="svg1638"
   sodipodi:version="0.32"
   inkscape:version="0.43"
   sodipodi:docbase="/home/monge/shogi/pieces"
   sodipodi:docname="silver-piece.svg">
  <defs
     id="defs1651" />
  <sodipodi:namedview
     inkscape:window-height="548"
     inkscape:window-width="962"
     inkscape:pageshadow="2"
     inkscape:pageopacity="0.0"
     borderopacity="1.0"
     bordercolor="#666666"
     pagecolor="#ffffff"
     id="base"
     inkscape:zoom="0.63931624"
     inkscape:cx="292.5"
     inkscape:cy="292.5"
     inkscape:window-x="310"
     inkscape:window-y="0"
     inkscape:current-layer="svg1638" />
  <metadata
     id="metadata1640">
Created by potrace 1.7, written by Peter Selinger 2001-2005
<rdf:RDF>
  <cc:Work
     rdf:about="">
    <dc:format>image/svg+xml</dc:format>
    <dc:type
       rdf:resource="http://purl.org/dc/dcmitype/StillImage" />
  </cc:Work>
</rdf:RDF>
</metadata>
  <g
     transform="translate(0,468) scale(0.468000,-0.468000)"
     fill="#000000"
     stroke="none"
     id="g1642">
    <path
       d="M381 768 c-17 -29 -37 -61 -44 -72 -9 -15 -9 -19 1 -23 6 -3 12 -18 12 -34 0 -34 16 -69 30 -69 14 0 12 44 -2 58 -9 9 -8 12 5 12 13 0 17 -9 17 -45 0 -43 -1 -45 -29 -45 -34 0 -44 -10 -31 -29 8 -14 25 -12 88 7 28 9 32 9 32 -9 0 -25 8 -24 76 6 l57 25 22 -20 c24 -23 36 -25 53 -8 9 9 3 17 -24 36 l-36 24 28 24 c28 23 28 25 10 38 -15 13 -18 26 -15 87 l4 73 -65 -1 -65 -1 -3 -67 c-2 -55 -5 -65 -17 -55 -9 7 -15 8 -20 0 -8 -12 -35 -13 -35 -1 0 5 10 11 23 13 12 2 22 10 22 18 0 12 -10 14 -43 12 l-43 -4 16 26 c20 31 23 31 47 9 15 -13 21 -14 31 -4 9 10 5 18 -23 41 -19 16 -38 30 -42 30 -3 0 -20 -24 -37 -52z m219 -8 c0 -5 -16 -10 -35 -10 -19 0 -35 5 -35 10 0 6 16 10 35 10 19 0 35 -4 35 -10z m0 -55 c0 -10 -11 -15 -35 -15 -24 0 -35 5 -35 15 0 10 11 15 35 15 24 0 35 -5 35 -15z m-200 -26 c0 -5 -9 -9 -20 -9 -22 0 -27 16 -7 23 15 5 27 -1 27 -14z m156 -46 c4 -16 11 -33 16 -40 12 -15 4 -29 -22 -36 -18 -5 -20 0 -20 49 0 57 15 73 26 27z m48 21 c12 -5 13 -9 4 -24 -14 -22 -28 -17 -28 11 0 21 1 22 24 13z m-115 -108 c-9 -8 -10 -8 -5 2 4 7 1 15 -8 18 -14 5 -14 8 -1 27 8 12 16 31 17 42 1 11 3 -2 5 -29 3 -30 0 -53 -8 -60z m-39 74 c-6 -11 -13 -20 -15 -20 -3 0 -5 9 -5 20 0 11 7 20 15 20 13 0 14 -4 5 -20z"
       id="path1646" />
    <path
       d="M388 464 c-3 -3 -1 -21 5 -40 9 -30 8 -37 -14 -60 -18 -19 -31 -24 -50 -20 -33 6 -49 -10 -49 -50 0 -17 -7 -37 -15 -44 -8 -7 -15 -19 -15 -26 0 -17 32 -18 48 -2 9 9 17 7 35 -10 13 -12 33 -22 45 -22 26 0 42 49 42 131 0 58 14 80 67 108 30 15 36 14 25 -6 -6 -10 -6 -22 0 -32 14 -24 -7 -71 -32 -71 -11 0 -20 -5 -20 -10 0 -13 41 -29 58 -23 20 8 14 -29 -10 -54 -24 -25 -17 -28 31 -12 35 12 38 24 14 51 -15 17 -15 21 -3 29 8 5 33 8 55 7 33 -3 41 -7 43 -27 2 -12 1 -34 -2 -47 -5 -19 -13 -24 -39 -24 l-32 0 30 -25 c17 -13 35 -24 42 -25 22 0 43 44 43 92 0 43 2 47 27 50 17 2 29 10 31 21 3 13 -4 17 -30 17 -19 0 -39 5 -45 11 -9 9 -18 8 -37 -5 -27 -17 -106 -22 -106 -6 0 9 62 30 91 30 23 0 59 38 53 55 -4 8 -16 17 -28 20 -35 8 -159 9 -189 0 -20 -5 -33 -3 -46 9 -10 9 -20 14 -23 10z m227 -44 c8 -13 -39 -42 -59 -34 -16 6 -21 25 -9 37 10 10 61 8 68 -3z m-237 -147 c-2 -30 -7 -38 -23 -38 -26 0 -31 31 -9 56 26 29 36 23 32 -18z"
       id="path1648" />
  </g>
</svg>
