<?xml version="1.0" encoding="UTF-8" standalone="no"?>
<svg
   xmlns:dc="http://purl.org/dc/elements/1.1/"
   xmlns:cc="http://web.resource.org/cc/"
   xmlns:rdf="http://www.w3.org/1999/02/22-rdf-syntax-ns#"
   xmlns:svg="http://www.w3.org/2000/svg"
   xmlns="http://www.w3.org/2000/svg"
   xmlns:sodipodi="http://inkscape.sourceforge.net/DTD/sodipodi-0.dtd"
   xmlns:inkscape="http://www.inkscape.org/namespaces/inkscape"
   version="1.0"
   width="468pt"
   height="468pt"
   viewBox="0 0 468 468"
   preserveAspectRatio="xMidYMid meet"
   id="svg1447"
   sodipodi:version="0.32"
   inkscape:version="0.43"
   sodipodi:docbase="/home/monge/kboard/themes/ShogiSVG"
   sodipodi:docname="tile.svg">
  <defs
     id="defs1464" />
  <sodipodi:namedview
     inkscape:window-height="700"
     inkscape:window-width="1092"
     inkscape:pageshadow="2"
     inkscape:pageopacity="0.0"
     borderopacity="1.0"
     bordercolor="#666666"
     pagecolor="#ffffff"
     id="base"
     inkscape:zoom="0.63931624"
     inkscape:cx="292.5"
     inkscape:cy="292.5"
     inkscape:window-x="82"
     inkscape:window-y="114"
     inkscape:current-layer="svg1447" />
  <metadata
     id="metadata1449">
Created by potrace 1.7, written by Peter Selinger 2001-2005
<rdf:RDF>
  <cc:Work
     rdf:about="">
    <dc:format>image/svg+xml</dc:format>
    <dc:type
       rdf:resource="http://purl.org/dc/dcmitype/StillImage" />
  </cc:Work>
</rdf:RDF>
</metadata>
  <g
     transform="translate(0,468) scale(0.468000,-0.468000)"
     id="g1451"
     stroke="none"
     fill="#000000">
    <path
       id="path1685"
       d="M 328,882 C 241,844 168,811 165,808 C 160,803 80,98 80,58 C 80,41 99,40 500,40 C 901,40 920,41 920,58 C 920,109 839,805 833,810 C 819,822 512,950 498,950 C 491,949 414,919 328,882 z "
       sodipodi:nodetypes="cssssccc"
       style="fill:#e7d579;fill-opacity:1" />
    <path
       d="M328 882 c-87 -38 -160 -71 -163 -74 -5 -5 -85 -710 -85 -750 0 -17 19 -18 420 -18 401 0 420 1 420 18 0 51 -81 747 -87 752 -14 12 -321 140 -335 140 -7 -1 -84 -31 -170 -68z m342 -25 l145 -63 8 -60 c4 -32 22 -195 40 -361 l33 -303 -396 0 -396 0 33 303 c18 166 36 329 40 361 l8 60 155 67 c85 38 162 66 170 64 8 -3 80 -33 160 -68z"
       id="path1453" />
  </g>
</svg>
