<?xml version="1.0" encoding="UTF-8" standalone="no"?>
<svg
   xmlns:dc="http://purl.org/dc/elements/1.1/"
   xmlns:cc="http://web.resource.org/cc/"
   xmlns:rdf="http://www.w3.org/1999/02/22-rdf-syntax-ns#"
   xmlns:svg="http://www.w3.org/2000/svg"
   xmlns="http://www.w3.org/2000/svg"
   xmlns:sodipodi="http://inkscape.sourceforge.net/DTD/sodipodi-0.dtd"
   xmlns:inkscape="http://www.inkscape.org/namespaces/inkscape"
   version="1.0"
   width="468pt"
   height="468pt"
   viewBox="0 0 468 468"
   preserveAspectRatio="xMidYMid meet"
   id="svg2"
   sodipodi:version="0.32"
   inkscape:version="0.43"
   sodipodi:docbase="/home/monge/shogi/pieces"
   sodipodi:docname="gold-piece.svg">
  <defs
     id="defs19" />
  <sodipodi:namedview
     inkscape:window-height="548"
     inkscape:window-width="962"
     inkscape:pageshadow="2"
     inkscape:pageopacity="0.0"
     borderopacity="1.0"
     bordercolor="#666666"
     pagecolor="#ffffff"
     id="base"
     inkscape:zoom="0.45206485"
     inkscape:cx="292.5"
     inkscape:cy="292.5"
     inkscape:window-x="182"
     inkscape:window-y="328"
     inkscape:current-layer="svg2" />
  <metadata
     id="metadata4">
Created by potrace 1.7, written by Peter Selinger 2001-2005
<rdf:RDF>
  <cc:Work
     rdf:about="">
    <dc:format>image/svg+xml</dc:format>
    <dc:type
       rdf:resource="http://purl.org/dc/dcmitype/StillImage" />
  </cc:Work>
</rdf:RDF>
</metadata>
  <g
     transform="translate(0,468) scale(0.468000,-0.468000)"
     fill="#000000"
     stroke="none"
     id="g6">
    <path
       d="M443 813 c-21 -26 -57 -66 -81 -88 -42 -39 -47 -60 -14 -48 10 3 29 17 43 30 17 16 29 21 33 14 4 -6 18 -11 32 -11 15 0 24 -6 24 -16 0 -14 -8 -16 -44 -12 -51 6 -81 -6 -56 -22 8 -5 34 -10 58 -10 l42 0 0 -50 c0 -42 -3 -50 -19 -50 -14 0 -17 6 -14 23 5 25 -30 77 -43 65 -4 -4 0 -26 9 -48 l15 -40 -39 0 c-28 0 -39 -4 -39 -15 0 -13 23 -15 145 -15 116 0 145 3 145 14 0 22 -29 41 -42 28 -7 -7 -23 -12 -36 -12 l-24 0 26 31 c14 17 26 39 26 50 0 10 5 19 10 19 15 0 12 37 -3 43 -8 3 -20 1 -28 -4 -23 -14 -59 -11 -59 6 0 8 8 15 18 15 10 0 23 5 28 10 7 7 19 4 36 -10 30 -23 61 -26 77 -6 14 17 1 29 -52 45 -24 8 -52 30 -79 62 -22 27 -45 49 -49 49 -4 0 -25 -21 -46 -47z m94 -59 c-4 -4 -30 -9 -59 -12 l-53 -4 35 36 34 36 25 -25 c14 -13 22 -27 18 -31z m5 -154 c-10 -27 -20 -50 -24 -50 -5 0 -8 23 -8 50 0 46 2 50 24 50 l24 0 -16 -50z"
       id="path10" />
    <path
       d="M537 483 c-29 -3 -37 -8 -33 -19 3 -9 -1 -29 -10 -46 -22 -42 -13 -58 29 -51 39 6 56 -9 36 -34 -12 -14 -9 -15 30 -8 34 6 42 4 39 -6 -3 -8 -13 -13 -23 -12 -23 2 -167 -25 -174 -33 -3 -3 2 -12 12 -19 16 -11 29 -10 85 6 37 10 82 19 100 19 l33 0 -3 -47 c-3 -44 -5 -48 -30 -51 -37 -4 -35 -15 5 -41 l32 -21 23 26 c16 18 22 38 22 69 0 38 3 44 23 47 41 6 25 32 -30 47 -53 14 -66 27 -38 37 22 9 18 40 -6 58 -18 12 -25 12 -54 0 -25 -10 -41 -11 -64 -3 -17 6 -31 14 -31 19 0 18 34 33 74 33 48 -1 72 9 62 26 -7 11 -32 12 -109 4z"
       id="path12" />
    <path
       d="M365 461 c-3 -5 -1 -12 5 -16 5 -3 10 -17 10 -31 0 -19 -5 -24 -26 -24 -22 0 -25 3 -21 22 7 24 -8 48 -28 48 -9 0 -12 -11 -8 -40 5 -36 3 -40 -16 -40 -25 0 -29 -29 -3 -31 24 -2 24 -2 60 6 25 5 32 3 32 -8 0 -20 -60 -40 -93 -32 -32 8 -43 -10 -17 -28 17 -12 19 -18 10 -41 -11 -31 -5 -50 15 -42 7 2 23 -6 36 -20 12 -13 28 -24 35 -24 19 0 34 33 34 77 0 21 9 73 19 117 18 77 18 79 0 97 -21 21 -35 24 -44 10z m-5 -198 c0 -37 -13 -56 -36 -51 -15 3 -18 10 -15 33 4 39 8 45 32 45 14 0 19 -7 19 -27z"
       id="path14" />
    <path
       d="M530 240 c0 -5 -12 -20 -26 -33 -18 -17 -23 -27 -14 -32 17 -11 91 25 88 43 -3 16 -48 37 -48 22z"
       id="path16" />
  </g>
</svg>
