<?xml version="1.0" encoding="UTF-8" standalone="no"?>
<svg
   xmlns:dc="http://purl.org/dc/elements/1.1/"
   xmlns:cc="http://creativecommons.org/ns#"
   xmlns:rdf="http://www.w3.org/1999/02/22-rdf-syntax-ns#"
   xmlns:svg="http://www.w3.org/2000/svg"
   xmlns="http://www.w3.org/2000/svg"
   xmlns:xlink="http://www.w3.org/1999/xlink"
   xmlns:sodipodi="http://sodipodi.sourceforge.net/DTD/sodipodi-0.dtd"
   xmlns:inkscape="http://www.inkscape.org/namespaces/inkscape"
   version="1.0"
   width="468pt"
   height="468pt"
   viewBox="0 0 468 468"
   preserveAspectRatio="xMidYMid meet"
   id="svg1447"
   sodipodi:version="0.32"
   inkscape:version="0.46"
   sodipodi:docbase="/nfs/home/monge/kboard/data/themes/Pieces/ShogiSVG"
   sodipodi:docname="nude_tile.svg"
   inkscape:output_extension="org.inkscape.output.svg.inkscape">
  <defs
     id="defs1464">
    <linearGradient
       id="linearGradient3163">
      <stop
         style="stop-color:#ffeda2;stop-opacity:1;"
         offset="0"
         id="stop3165" />
      <stop
         style="stop-color:#c0a870;stop-opacity:1;"
         offset="1"
         id="stop3167" />
    </linearGradient>
    <inkscape:perspective
       sodipodi:type="inkscape:persp3d"
       inkscape:vp_x="0 : 292.5 : 1"
       inkscape:vp_y="0 : 1000 : 0"
       inkscape:vp_z="585 : 292.5 : 1"
       inkscape:persp3d-origin="292.5 : 195 : 1"
       id="perspective2389" />
    <radialGradient
       inkscape:collect="always"
       xlink:href="#linearGradient3163"
       id="radialGradient3169"
       cx="292.22867"
       cy="292.50787"
       fx="292.22867"
       fy="292.50787"
       r="245.59012"
       gradientTransform="matrix(1.0340515,0.1610164,-0.1455795,0.9383226,-24.928575,-84.859597)"
       gradientUnits="userSpaceOnUse" />
  </defs>
  <sodipodi:namedview
     inkscape:window-height="898"
     inkscape:window-width="1280"
     inkscape:pageshadow="2"
     inkscape:pageopacity="0.0"
     borderopacity="1.0"
     bordercolor="#666666"
     pagecolor="#ffffff"
     id="base"
     inkscape:zoom="0.9041297"
     inkscape:cx="415.28328"
     inkscape:cy="297.17742"
     inkscape:window-x="-3"
     inkscape:window-y="33"
     inkscape:current-layer="svg1447"
     showgrid="false" />
  <metadata
     id="metadata1449">
Created by potrace 1.7, written by Peter Selinger 2001-2005
<rdf:RDF>
  <cc:Work
     rdf:about="">
    <dc:format>image/svg+xml</dc:format>
    <dc:type
       rdf:resource="http://purl.org/dc/dcmitype/StillImage" />
  </cc:Work>
</rdf:RDF>
</metadata>
  <g
     id="g3173">
    <path
       id="path2391"
       d="M 32.505197,452.68415 C 32.78198,451.04969 36.096287,421.11503 39.870297,386.16267 C 49.634071,295.73685 70.194993,110.84531 72.053389,96.759927 L 73.621739,84.872924 L 78.006087,82.773141 C 86.312777,78.794853 181.34059,37.938636 195.46203,32.27417 C 214.50463,24.635702 234.91605,17.66565 238.2422,17.66565 C 241.70618,17.66565 267.37247,28.467852 371.61759,73.799587 L 395.80476,84.317532 L 397.37545,94.653471 C 399.36593,107.7497 437.33366,449.94344 437.33366,454.78555 C 437.33366,455.33381 362.33657,455.65591 234.66777,455.65591 L 32.001866,455.65591 L 32.505197,452.68415 z"
       style="opacity:1;fill:url(#radialGradient3169);fill-opacity:1;stroke:none;stroke-width:0.2;stroke-miterlimit:4;stroke-dasharray:none;stroke-opacity:1" />
    <g
       style="fill:#000000;stroke:none"
       id="g1451"
       transform="matrix(0.497170,0.000000,0.000000,-0.497170,-14.58509,481.1668)">
      <path
         id="path1453"
         d="M 328.00000,882.00000 C 241.00000,844.00000 168.00000,811.00000 165.00000,808.00000 C 160.00000,803.00000 80.000000,98.000000 80.000000,58.000000 C 80.000000,41.000000 99.000000,40.000000 500.00000,40.000000 C 901.00000,40.000000 920.00000,41.000000 920.00000,58.000000 C 920.00000,109.00000 839.00000,805.00000 833.00000,810.00000 C 819.00000,822.00000 512.00000,950.00000 498.00000,950.00000 C 491.00000,949.00000 414.00000,919.00000 328.00000,882.00000 z M 670.00000,857.00000 L 815.00000,794.00000 L 823.00000,734.00000 C 827.00000,702.00000 845.00000,539.00000 863.00000,373.00000 L 896.00000,70.000000 L 500.00000,70.000000 L 104.00000,70.000000 L 137.00000,373.00000 C 155.00000,539.00000 173.00000,702.00000 177.00000,734.00000 L 185.00000,794.00000 L 340.00000,861.00000 C 425.00000,899.00000 502.00000,927.00000 510.00000,925.00000 C 518.00000,922.00000 590.00000,892.00000 670.00000,857.00000 z " />
    </g>
  </g>
</svg>
