<?xml version="1.0" encoding="UTF-8" standalone="no"?>
<svg
   xmlns:dc="http://purl.org/dc/elements/1.1/"
   xmlns:cc="http://web.resource.org/cc/"
   xmlns:rdf="http://www.w3.org/1999/02/22-rdf-syntax-ns#"
   xmlns:svg="http://www.w3.org/2000/svg"
   xmlns="http://www.w3.org/2000/svg"
   xmlns:sodipodi="http://inkscape.sourceforge.net/DTD/sodipodi-0.dtd"
   xmlns:inkscape="http://www.inkscape.org/namespaces/inkscape"
   version="1.0"
   width="468pt"
   height="468pt"
   viewBox="0 0 468 468"
   preserveAspectRatio="xMidYMid meet"
   id="svg1604"
   sodipodi:version="0.32"
   inkscape:version="0.43"
   sodipodi:docbase="/home/monge/shogi/pieces"
   sodipodi:docname="shogipawn-piece.svg">
  <defs
     id="defs1621" />
  <sodipodi:namedview
     inkscape:window-height="548"
     inkscape:window-width="962"
     inkscape:pageshadow="2"
     inkscape:pageopacity="0.0"
     borderopacity="1.0"
     bordercolor="#666666"
     pagecolor="#ffffff"
     id="base"
     inkscape:zoom="0.63931624"
     inkscape:cx="292.5"
     inkscape:cy="292.5"
     inkscape:window-x="0"
     inkscape:window-y="0"
     inkscape:current-layer="svg1604" />
  <metadata
     id="metadata1606">
Created by potrace 1.7, written by Peter Selinger 2001-2005
<rdf:RDF>
  <cc:Work
     rdf:about="">
    <dc:format>image/svg+xml</dc:format>
    <dc:type
       rdf:resource="http://purl.org/dc/dcmitype/StillImage" />
  </cc:Work>
</rdf:RDF>
</metadata>
  <g
     transform="translate(0,468) scale(0.468000,-0.468000)"
     fill="#000000"
     stroke="none"
     id="g1608">
    <path
       d="M479 833 c-1 -5 0 -34 1 -65 2 -57 1 -58 -25 -58 -27 0 -28 1 -22 44 5 34 3 45 -9 50 -30 11 -34 6 -34 -44 0 -46 -2 -50 -24 -50 -14 0 -28 -5 -32 -11 -10 -17 16 -28 50 -22 l30 6 -24 -34 c-13 -19 -32 -40 -42 -47 -19 -14 -25 -42 -9 -42 8 0 74 51 105 81 5 5 4 15 -4 25 -12 14 -11 16 10 12 22 -3 25 -9 28 -45 3 -38 1 -43 -17 -43 -26 0 -28 -25 -3 -35 13 -6 5 -11 -32 -24 -54 -19 -72 -41 -34 -41 70 0 215 87 211 126 -1 16 1 15 16 -5 12 -16 24 -22 35 -18 23 9 20 24 -10 52 l-27 25 26 0 c33 0 44 17 24 38 -13 12 -21 13 -41 4 -28 -12 -97 -5 -108 12 -5 7 11 13 50 16 42 4 58 9 60 22 4 20 -35 35 -51 19 -6 -6 -22 -11 -35 -11 -19 0 -23 5 -21 23 2 12 0 28 -4 35 -9 13 -36 17 -38 5z m99 -183 c7 -11 9 -19 4 -18 -4 2 -21 -12 -37 -30 l-30 -33 3 50 c3 45 7 51 26 51 11 0 27 -9 34 -20z"
       id="path1612" />
    <path
       d="M432 415 c-6 -14 -27 -33 -47 -42 -45 -22 -45 -37 1 -29 l35 7 -3 -43 c-3 -41 -5 -43 -36 -46 -19 -2 -47 1 -63 7 -38 13 -44 0 -14 -29 26 -24 20 -24 180 0 70 11 88 10 148 -5 50 -13 71 -15 79 -7 22 22 -11 42 -68 42 -49 0 -55 2 -64 26 -15 37 -13 41 23 54 31 11 31 12 12 26 -11 8 -26 12 -35 9 -42 -17 -100 -28 -107 -22 -4 5 -2 16 4 26 7 11 8 23 1 34 -13 24 -33 21 -46 -8z m92 -88 c16 -11 17 -17 7 -36 -15 -28 -74 -27 -79 2 -8 40 36 60 72 34z"
       id="path1614" />
    <path
       d="M399 193 c-8 -9 -29 -22 -46 -30 -18 -7 -33 -18 -33 -23 0 -16 34 -12 85 10 35 15 45 24 41 36 -3 9 -6 18 -6 20 0 11 -29 2 -41 -13z"
       id="path1616" />
    <path
       d="M550 202 c0 -12 64 -72 77 -72 26 0 18 53 -11 72 -15 10 -66 10 -66 0z"
       id="path1618" />
  </g>
</svg>
