<?xml version="1.0" encoding="UTF-8" standalone="no"?>
<svg
   xmlns:dc="http://purl.org/dc/elements/1.1/"
   xmlns:cc="http://web.resource.org/cc/"
   xmlns:rdf="http://www.w3.org/1999/02/22-rdf-syntax-ns#"
   xmlns:svg="http://www.w3.org/2000/svg"
   xmlns="http://www.w3.org/2000/svg"
   xmlns:sodipodi="http://inkscape.sourceforge.net/DTD/sodipodi-0.dtd"
   xmlns:inkscape="http://www.inkscape.org/namespaces/inkscape"
   version="1.0"
   width="468pt"
   height="468pt"
   viewBox="0 0 468 468"
   preserveAspectRatio="xMidYMid meet"
   id="svg1492"
   sodipodi:version="0.32"
   inkscape:version="0.43"
   sodipodi:docbase="/home/monge/shogi/pieces"
   sodipodi:docname="prook-piece.svg">
  <defs
     id="defs1509" />
  <sodipodi:namedview
     inkscape:window-height="548"
     inkscape:window-width="962"
     inkscape:pageshadow="2"
     inkscape:pageopacity="0.0"
     borderopacity="1.0"
     bordercolor="#666666"
     pagecolor="#ffffff"
     id="base"
     inkscape:zoom="0.63931624"
     inkscape:cx="292.5"
     inkscape:cy="292.5"
     inkscape:window-x="310"
     inkscape:window-y="0"
     inkscape:current-layer="svg1492" />
  <metadata
     id="metadata1494">
Created by potrace 1.7, written by Peter Selinger 2001-2005
<rdf:RDF>
  <cc:Work
     rdf:about="">
    <dc:format>image/svg+xml</dc:format>
    <dc:type
       rdf:resource="http://purl.org/dc/dcmitype/StillImage" />
  </cc:Work>
</rdf:RDF>
</metadata>
  <g
     transform="translate(0,468) scale(0.468000,-0.468000)"
     fill="#000000"
     stroke="none"
     id="g1496">
    <path
       d="M510 831 c0 -4 5 -22 11 -40 7 -19 8 -54 5 -85 -6 -45 -15 -62 -55 -107 -34 -38 -52 -51 -64 -46 -26 10 -20 26 18 44 37 18 37 38 -1 29 -29 -8 -32 9 -4 24 15 8 19 17 15 31 -4 12 -1 21 9 25 9 3 16 13 16 21 0 12 -10 14 -52 8 -61 -8 -68 -12 -48 -25 13 -8 13 -13 2 -31 -11 -18 -11 -23 3 -33 16 -12 16 -13 0 -29 -9 -9 -27 -17 -40 -17 -32 0 -40 -17 -15 -32 25 -16 25 -22 -1 -57 -21 -29 -19 -51 4 -51 7 0 22 16 35 35 22 35 45 45 57 25 4 -6 -1 -23 -10 -37 -17 -25 -17 -27 1 -40 17 -12 21 -11 37 8 9 12 17 38 17 58 0 46 44 105 59 81 6 -8 9 -40 8 -71 -3 -71 18 -99 73 -99 38 0 98 16 114 31 6 5 -2 21 -19 39 -35 36 -47 38 -39 7 4 -20 0 -26 -25 -36 -49 -21 -66 -12 -69 36 -2 23 2 51 7 62 8 14 7 22 -4 31 -34 28 -11 77 48 99 37 14 32 42 -10 53 -29 8 -32 11 -27 37 5 22 1 32 -17 45 -26 18 -39 20 -39 7z m60 -117 c0 -8 -5 -12 -10 -9 -6 4 -8 11 -5 16 9 14 15 11 15 -7z"
       id="path1500" />
    <path
       d="M395 790 c0 -16 0 -30 1 -30 1 0 15 5 33 11 44 16 43 49 -1 49 -30 0 -33 -3 -33 -30z"
       id="path1502" />
    <path
       d="M606 631 c4 -25 2 -53 -6 -71 -16 -39 -9 -45 22 -21 21 17 25 28 24 73 -1 47 -4 53 -24 56 -21 3 -22 1 -16 -37z"
       id="path1504" />
    <path
       d="M442 373 c-34 -3 -43 -8 -40 -21 4 -18 42 -21 86 -7 17 6 22 3 22 -9 0 -10 -9 -16 -24 -16 -59 0 -101 -76 -55 -100 19 -11 19 -13 5 -29 -23 -25 -20 -40 9 -51 34 -13 115 -1 123 18 8 21 -23 40 -56 35 l-27 -4 31 28 c27 25 30 33 29 84 -2 66 -9 80 -38 77 -12 -1 -41 -3 -65 -5z m62 -92 c3 -5 -4 -21 -15 -35 -17 -21 -24 -24 -35 -15 -15 12 -19 41 -7 52 9 10 51 8 57 -2z"
       id="path1506" />
  </g>
</svg>
