<?xml version="1.0" encoding="UTF-8" standalone="no"?>
<svg
   xmlns:dc="http://purl.org/dc/elements/1.1/"
   xmlns:cc="http://web.resource.org/cc/"
   xmlns:rdf="http://www.w3.org/1999/02/22-rdf-syntax-ns#"
   xmlns:svg="http://www.w3.org/2000/svg"
   xmlns="http://www.w3.org/2000/svg"
   xmlns:sodipodi="http://inkscape.sourceforge.net/DTD/sodipodi-0.dtd"
   xmlns:inkscape="http://www.inkscape.org/namespaces/inkscape"
   version="1.0"
   width="468pt"
   height="468pt"
   viewBox="0 0 468 468"
   preserveAspectRatio="xMidYMid meet"
   id="svg1623"
   sodipodi:version="0.32"
   inkscape:version="0.43"
   sodipodi:docbase="/home/monge/shogi/pieces"
   sodipodi:docname="shogirook-piece.svg">
  <defs
     id="defs1636" />
  <sodipodi:namedview
     inkscape:window-height="548"
     inkscape:window-width="962"
     inkscape:pageshadow="2"
     inkscape:pageopacity="0.0"
     borderopacity="1.0"
     bordercolor="#666666"
     pagecolor="#ffffff"
     id="base"
     inkscape:zoom="0.63931624"
     inkscape:cx="292.5"
     inkscape:cy="292.5"
     inkscape:window-x="310"
     inkscape:window-y="416"
     inkscape:current-layer="svg1623" />
  <metadata
     id="metadata1625">
Created by potrace 1.7, written by Peter Selinger 2001-2005
<rdf:RDF>
  <cc:Work
     rdf:about="">
    <dc:format>image/svg+xml</dc:format>
    <dc:type
       rdf:resource="http://purl.org/dc/dcmitype/StillImage" />
  </cc:Work>
</rdf:RDF>
</metadata>
  <g
     transform="translate(0,468) scale(0.468000,-0.468000)"
     fill="#000000"
     stroke="none"
     id="g1627">
    <path
       d="M536 853 c-4 -4 -44 -8 -89 -8 -66 0 -82 -3 -82 -15 0 -11 15 -17 50 -21 28 -3 43 -7 35 -7 -23 -3 -120 -56 -120 -66 0 -5 16 -6 35 -3 19 3 35 2 35 -3 0 -5 -17 -10 -37 -12 -53 -4 -56 -28 -3 -28 l43 0 -7 -32 c-3 -18 -20 -52 -36 -75 -22 -30 -27 -44 -18 -49 20 -13 76 63 84 113 5 33 10 43 23 41 13 -3 16 -18 16 -88 0 -69 3 -85 15 -85 12 0 16 19 20 87 5 96 17 104 39 29 17 -58 60 -101 100 -101 28 0 31 3 31 31 0 23 -9 41 -32 63 -30 29 -32 33 -17 47 8 9 23 18 32 22 27 10 20 50 -15 80 -23 21 -28 31 -20 39 18 18 14 38 -6 38 -9 0 -25 -12 -35 -27 -14 -22 -17 -23 -12 -7 6 22 -16 50 -29 37z m2 -73 c6 -16 23 -42 37 -56 l27 -27 -22 -21 -23 -21 6 24 c9 35 -8 52 -39 41 -23 -9 -24 -8 -24 40 0 58 21 69 38 20z m87 -49 c-3 -3 -18 8 -33 23 l-27 29 32 -23 c18 -13 30 -26 28 -29z m-165 4 c0 -16 -6 -25 -15 -25 -9 0 -15 9 -15 25 0 16 6 25 15 25 9 0 15 -9 15 -25z m154 -131 c29 -25 28 -47 -1 -28 -20 13 -49 54 -37 54 5 0 22 -12 38 -26z"
       id="path1631" />
    <path
       d="M476 472 c-3 -5 -1 -14 5 -22 20 -33 10 -40 -53 -40 l-62 0 20 -21 c18 -18 26 -19 58 -11 24 7 38 7 42 0 12 -20 -16 -31 -81 -32 -40 -1 -65 -5 -65 -12 0 -6 10 -34 21 -62 29 -70 22 -84 -41 -81 -27 2 -52 0 -55 -2 -3 -3 5 -15 18 -27 22 -20 25 -21 77 -7 90 24 108 21 116 -20 8 -44 26 -40 37 8 l9 36 46 -5 c26 -3 71 -10 101 -16 37 -7 56 -7 64 1 17 17 -11 41 -48 41 -17 0 -34 3 -38 6 -3 4 5 29 19 56 l25 50 -22 24 c-19 20 -32 24 -81 24 -47 0 -58 3 -58 16 0 14 8 16 50 10 41 -5 50 -4 50 8 0 22 -35 38 -65 30 -21 -5 -27 -2 -31 14 -6 21 -50 47 -58 34z m9 -163 c0 -9 -14 -15 -42 -17 -51 -4 -57 13 -10 27 39 11 52 9 52 -10z m142 -34 c-3 -30 -8 -59 -12 -65 -9 -15 -98 -13 -92 3 2 7 17 11 36 9 22 -1 31 2 31 13 0 10 -11 15 -35 15 -19 0 -35 5 -35 10 0 6 16 10 36 10 45 0 42 24 -4 28 -31 3 -39 11 -25 25 3 4 29 7 56 7 l50 0 -6 -55z m-137 -15 c8 -3 -44 -18 -67 -19 -13 -1 -23 5 -23 12 0 9 13 12 43 11 23 -1 44 -3 47 -4z m-10 -51 c0 -5 -18 -9 -40 -9 -36 0 -49 8 -35 21 8 8 75 -3 75 -12z"
       id="path1633" />
  </g>
</svg>
